<?xml version="1.0" encoding="utf-8"?>
<!-- Generator: Adobe Illustrator 19.0.0, SVG Export Plug-In . SVG Version: 6.00 Build 0)  -->
<svg version="1.1" id="Layer_1" xmlns="http://www.w3.org/2000/svg" xmlns:xlink="http://www.w3.org/1999/xlink" x="0px" y="0px"
	 viewBox="0 0 247.6 387.8" style="enable-background:new 0 0 247.6 387.8;" xml:space="preserve">
<style type="text/css">
	.st0{fill:#232323;}
	.st1{fill:#FFFFFF;}
	.st2{fill-rule:evenodd;clip-rule:evenodd;fill:#232323;}
	.st3{font-family:'ZillaSlab-Medium';}
	.st4{font-size:39px;}
	.st5{letter-spacing:15;}
</style>
<path class="st0" d="M119.6,136.4l0.2,0.3l2.2-0.5l2,9c0,0.1,0,0.2,0.1,0.3c0,0.1,0.1,0.2,0.1,0.2c0,0.1,0.1,0.1,0.1,0.2
	c0,0.1,0.1,0.1,0.1,0.2l0.1,0.1c0,0,0.1,0.1,0.1,0.1l0.1,0.1l0.1,0l0.1,0l0.1,0l0.2,0l0.2,0l0.2,0l0.2,0l0.3,0l0.3-0.1l0.3-0.1
	l0.3-0.1l0.3-0.1l0.3-0.1l0.3-0.1l-2.3-10.4l4.3-1l1.7,7.4c0.1,0.6,0.3,1.1,0.5,1.5c0.2,0.4,0.5,0.7,0.7,0.9c0.3,0.2,0.6,0.3,1,0.4
	c0.4,0,0.8,0,1.3-0.1c0.2-0.1,0.4-0.1,0.6-0.2c0.2-0.1,0.3-0.1,0.5-0.2c0.1-0.1,0.2-0.2,0.3-0.2c0.1-0.1,0.2-0.2,0.2-0.3
	c0.1-0.1,0.1-0.2,0.2-0.3c0-0.1,0.1-0.2,0.1-0.3c0-0.1,0-0.2,0-0.3c0-0.1,0-0.2,0-0.4l0-0.2l0-0.1l-0.1,0l-0.2,0
	c-0.2,0-0.3,0-0.5-0.1c-0.1-0.1-0.3-0.1-0.4-0.2c-0.1-0.1-0.2-0.2-0.4-0.3c-0.1-0.1-0.2-0.3-0.3-0.4c-0.1-0.1-0.1-0.3-0.2-0.4
	c-0.1-0.2-0.1-0.3-0.1-0.5l-1.4-6.2l1.6-0.4c0.1,0,0.2,0,0.2-0.1c0.1,0,0.1-0.1,0.2-0.1c0,0,0.1-0.1,0.1-0.1c0,0,0.1-0.1,0.1-0.1
	c0,0,0-0.1,0.1-0.1c0-0.1,0-0.1,0-0.2c0-0.1,0-0.2,0-0.3c0-0.1,0-0.3-0.1-0.4c0-0.1,0-0.2-0.1-0.2l-0.1-0.2c0-0.1-0.1-0.1-0.1-0.2
	c-0.1-0.2-0.2-0.3-0.3-0.5l-14.9,3.3c-0.1,0-0.2,0-0.2,0.1c-0.1,0-0.1,0.1-0.2,0.1c0,0-0.1,0.1-0.1,0.1c0,0-0.1,0.1-0.1,0.1
	c0,0,0,0.1-0.1,0.1c0,0.1,0,0.1,0,0.2c0,0.1,0,0.2,0,0.3c0,0.1,0,0.3,0.1,0.4c0,0.1,0,0.2,0.1,0.2c0,0.1,0,0.1,0.1,0.2
	c0,0.1,0.1,0.1,0.1,0.2L119.6,136.4z"/>
<path class="st0" d="M68.7,101.1c0.2-0.2,0.4-0.5,0.5-0.7l-6-9.6c-0.2-0.3-0.4-0.5-0.6-0.7c-0.2-0.2-0.5-0.3-0.7-0.3
	c-0.2-0.1-0.5,0-0.8,0c-0.4,0.1-0.8,0.3-1.3,0.6c-0.3,0.2-0.5,0.3-0.7,0.5c-0.2,0.2-0.4,0.4-0.6,0.6h0c-0.2,0.2-0.4,0.5-0.5,0.7
	l6,9.6c0.2,0.3,0.4,0.5,0.6,0.7c0.2,0.2,0.5,0.3,0.7,0.3c0.2,0.1,0.5,0,0.8,0c0.1,0,0.2-0.1,0.4-0.1l1.3-0.7
	c0.1-0.1,0.2-0.2,0.3-0.3C68.3,101.6,68.5,101.3,68.7,101.1 M63.4,104.8c-0.1-0.1-0.2-0.2-0.4-0.3c-0.5-0.4-0.9-0.8-1.2-1.4
	l-6.8-10.8l0.4-0.6c0.1-0.2,0.3-0.5,0.5-0.8c0.2-0.2,0.4-0.5,0.6-0.9l0,0c0.3-0.3,0.6-0.7,0.9-1c0.3-0.3,0.7-0.6,1.1-0.8
	c0.7-0.4,1.4-0.7,2-0.9c0.7-0.2,1.4-0.2,2,0c0.6,0.1,1.1,0.4,1.6,0.8c0.5,0.4,0.9,0.8,1.2,1.4l6.6,10.4c0,0,0.1,0,0.1,0
	c0.3,0.1,0.5,0.2,0.7,0.5c0.1,0.2,0.2,0.4,0.2,0.7c0,0.3,0.1,0.6,0.1,0.9l0.4,7.6c0,0.3,0,0.6-0.1,0.9c-0.1,0.2-0.3,0.4-0.5,0.6
	c-0.3,0.1-0.5,0.2-0.8,0.2c-0.2,0-0.5-0.2-0.8-0.4l-6.5-4.2c-0.3-0.2-0.6-0.4-0.8-0.5c-0.2-0.2-0.4-0.4-0.5-0.6
	C63.3,105.4,63.3,105.2,63.4,104.8L63.4,104.8z M70.5,103.2l-1.2,0.7c-0.2,0.2-0.5,0.3-0.7,0.5c-0.5,0.3-1,0.6-1.5,0.7l-0.2,0.1
	l4,2.8L70.5,103.2z"/>
<path class="st0" d="M52.6,110.3c0.8,0.6,1.6,1.1,2.4,1.7c3.4,2.9,6.4,6.2,9.2,9.7c2.7,3.3,5.3,6.7,8,10c2.9,3.5,6.2,6.5,10.2,8.6
	c1.3,0.7,2.9,1.1,4.4,1.4c-3-2.6-6.1-5-8.9-7.8c-2.5-2.5-4.6-5.3-6.9-8c-3.7-4.4-7.4-8.6-12.2-11.8c-1.2-0.8-2.1-1.8-3.3-2.7
	c-0.8-0.6-1.8-1-2.6-1.5C52.7,110.1,52.6,110.2,52.6,110.3"/>
<path class="st0" d="M47.6,110.7c3.1,2.6,5.5,5.8,7.7,9.1c1.9,2.9,3.4,6,5.1,9c2.2,3.9,4.9,7.2,8.6,9.8c2.9,2.1,6,3.3,9.3,4.2
	c0.9,0.2,1.8,0.3,2.7,0.4c-2.3-1.8-4.5-3.6-6.8-5.3c-2.5-1.8-4.2-4.5-6.2-6.7c-3.8-4.4-7.4-8.9-11.2-13.3
	C54.1,115.1,51.2,112.5,47.6,110.7 M52.6,110.3c0.8,0.6,1.6,1.1,2.4,1.7c3.4,2.9,6.4,6.2,9.2,9.7c2.7,3.3,5.3,6.7,8,10
	c2.9,3.5,6.2,6.5,10.2,8.6c1.3,0.7,2.9,1.1,4.4,1.4c-3-2.6-6.1-5-8.9-7.8c-2.5-2.5-4.6-5.3-6.9-8c-3.7-4.4-7.4-8.6-12.2-11.8
	c-1.2-0.8-2.1-1.8-3.3-2.7c-0.8-0.6-1.8-1-2.6-1.5C52.7,110.1,52.6,110.2,52.6,110.3z M58.3,110c2.8,2.2,5.7,4.3,8.4,6.8
	c3.6,3.5,6.7,7.3,9.9,11c1.9,2.2,3.7,4.5,5.9,6.4c4.2,3.6,8.6,6.9,13.2,9.9c0.8,0.5,1.2,1.1,0.9,1.9c-0.3,0.8-1.1,1.1-2,0.9
	c-1.9-0.5-3.8-0.4-5.8-0.3c-2.6,0.1-5.2-0.1-7.8-0.2c-3.1-0.2-5.9-1.3-8.9-2.3c-3-1-5.4-3-7.7-4.9C58.6,134.3,26.5,85,58.3,110z"/>
<path class="st1" d="M47.6,110.7c3.1,2.6,5.5,5.8,7.7,9.1c1.9,2.9,3.4,6,5.1,9c2.2,3.9,4.9,7.2,8.6,9.8c2.9,2.1,6,3.3,9.3,4.2
	c0.9,0.2,1.8,0.3,2.7,0.4c-2.3-1.8-4.5-3.6-6.8-5.3c-2.5-1.8-4.2-4.5-6.2-6.7c-3.8-4.4-7.4-8.9-11.2-13.3
	C54.1,115.1,51.2,112.5,47.6,110.7"/>
<path class="st1" d="M52.6,110.3c0.8,0.6,1.6,1.1,2.4,1.7c3.4,2.9,6.4,6.2,9.2,9.7c2.7,3.3,5.3,6.7,8,10c2.9,3.5,6.2,6.5,10.2,8.6
	c1.3,0.7,2.9,1.1,4.4,1.4c-3-2.6-6.1-5-8.9-7.8c-2.5-2.5-4.6-5.3-6.9-8c-3.7-4.4-7.4-8.6-12.2-11.8c-1.2-0.8-2.1-1.8-3.3-2.7
	c-0.8-0.6-1.8-1-2.6-1.5C52.7,110.1,52.6,110.2,52.6,110.3"/>
<path class="st0" d="M182.8,143.9c0.8-0.5,1.6-1.1,2.5-1.6c4-2.1,8.2-3.5,12.5-4.9c4.1-1.3,8.2-2.3,12.3-3.6
	c4.3-1.3,8.3-3.3,11.9-6.1c1.2-1,2.1-2.2,3-3.5c-3.5,1.8-6.9,3.7-10.5,5.3c-3.2,1.4-6.7,2.3-10,3.3c-5.4,1.7-10.8,3.6-15.6,6.8
	c-1.2,0.8-2.5,1.3-3.7,2c-0.9,0.5-1.6,1.2-2.4,1.9C182.6,143.6,182.7,143.7,182.8,143.9"/>
<path class="st0" d="M181.3,148.6c3.6-1.9,7.4-2.9,11.4-3.6c3.4-0.6,6.9-0.8,10.3-1.2c4.4-0.5,8.5-1.9,12.4-4.2c3-1.9,5.3-4.3,7.4-7
	c0.6-0.7,1-1.6,1.4-2.3c-2.5,1.4-5,2.8-7.5,4.3c-2.7,1.6-5.7,2.2-8.6,3.2c-5.5,1.9-11.1,3.4-16.5,5.3
	C187.8,144.2,184.2,146,181.3,148.6 M182.8,143.9c0.8-0.5,1.6-1.1,2.5-1.6c4-2.1,8.2-3.5,12.5-4.9c4.1-1.3,8.2-2.3,12.3-3.6
	c4.3-1.3,8.3-3.3,11.9-6.1c1.2-1,2.1-2.2,3-3.5c-3.5,1.8-6.9,3.7-10.6,5.3c-3.2,1.4-6.7,2.3-10,3.3c-5.4,1.7-10.8,3.6-15.6,6.8
	c-1.2,0.8-2.5,1.3-3.7,2c-0.9,0.5-1.6,1.2-2.4,1.9C182.6,143.6,182.7,143.7,182.8,143.9z M184.7,138.4c3.1-1.8,6.1-3.7,9.5-5.1
	c4.6-2,9.2-3.4,13.9-4.9c2.8-0.9,5.6-1.7,8.2-3c4.9-2.5,9.6-5.3,14.2-8.5c0.8-0.5,1.5-0.7,2.1-0.1c0.6,0.6,0.6,1.4,0.1,2.1
	c-1.2,1.6-1.8,3.4-2.5,5.2c-0.9,2.4-2,4.8-3.1,7.1c-1.3,2.8-3.4,5-5.5,7.3c-2.1,2.4-4.8,3.8-7.5,5.2
	C207.3,147.4,149.5,158.4,184.7,138.4z"/>
<path class="st1" d="M181.3,148.6c3.6-1.9,7.4-2.9,11.4-3.6c3.4-0.6,6.9-0.8,10.3-1.2c4.4-0.5,8.5-1.9,12.4-4.2c3-1.9,5.3-4.3,7.4-7
	c0.6-0.7,1-1.6,1.4-2.3c-2.5,1.4-5,2.8-7.5,4.3c-2.7,1.6-5.7,2.2-8.6,3.2c-5.5,1.9-11.1,3.4-16.5,5.3
	C187.8,144.2,184.2,146,181.3,148.6"/>
<path class="st1" d="M182.8,143.9c0.8-0.5,1.6-1.1,2.5-1.6c4-2.1,8.2-3.5,12.5-4.9c4.1-1.3,8.2-2.3,12.3-3.6
	c4.3-1.3,8.3-3.3,11.9-6.1c1.2-1,2.1-2.2,3-3.5c-3.5,1.8-6.9,3.7-10.6,5.3c-3.2,1.4-6.7,2.3-10,3.3c-5.4,1.7-10.8,3.6-15.6,6.8
	c-1.2,0.8-2.5,1.3-3.7,2c-0.9,0.5-1.6,1.2-2.4,1.9C182.6,143.6,182.7,143.7,182.8,143.9"/>
<path class="st0" d="M184.9,157c12.8,1,20.8,5.1,20,15.2c-1.2,15.3-7.1,29.6-17.2,40.9c-9.4,10.5-22.5,18.2-39.1,21.7
	c-6.5,1.4-13.1,2.2-19.7,2.3c-6.6,0.1-13.2-0.6-19.8-2.3c-5-1.3-9.8-3-14.4-5c-4.6-2.1-9-4.6-13-7.6c-8.5-6.4-15.6-14.3-21-23
	c-5.4-8.8-9-18.3-10.5-28.2c-1.5-9.5,1.9-13.3,8.1-14.2l0,0c4.5-0.7,10.4,0.5,16.8,1.9c5.6,1.2,11.7,2.4,17.1,2.5l0.2,0l0.1,0
	c13.8,1.5,32.3-0.3,50-2C158.4,157.6,173.7,156.1,184.9,157 M199,171.8c0.5-5.6-5.3-8-14.5-8.8c-10.8-0.9-25.8,0.6-41.4,2.1
	c-18,1.7-36.7,3.6-51.1,2c-6-0.1-12.3-1.4-18.1-2.6c-5.9-1.2-11.2-2.4-14.6-1.8v0c-2.6,0.4-3.9,2.3-3.1,7.4
	c1.4,9.1,4.7,17.9,9.7,25.9c5,8.1,11.6,15.4,19.5,21.3c3.7,2.8,7.6,5,11.8,6.9c4.3,1.9,8.8,3.4,13.5,4.7c6.1,1.6,12.2,2.2,18.3,2.2
	c6.1-0.1,12.3-0.9,18.5-2.2c15.2-3.1,27.2-10.3,35.8-19.8C192.5,198.9,197.8,185.8,199,171.8z"/>
<path class="st2" d="M208.1,70.8c14.8-5.8,25.6,11.1,15.2,19.5c-1.4,1.1-3.2,2.1-5,2.3c-1.9,0.2-3.8-0.5-4.8-2.1
	c-0.5-0.9-0.6-2-0.3-3.1l0.4-0.7c0.7-0.6,1.5-0.7,2.5-0.4c0.8,0.3,0.5,0.5,1,0.8c1,0.5,1.7,0,2.3-0.8c0.7-0.9,1-2.7,0.9-3.7
	c0-2.6-1.6-5.2-4.1-6.1c-1.9-0.7-4.7-0.2-6.6,0.7c-2.6,1.1-4.6,2.5-6.7,4.3l-2.3,2.3v0l-4.7,5.7l-1.7,2.8
	c-1.6,2.6-5.3,10.5-6.4,13.6L184,116l-2.1,5.2c-1.8,4.9-6.3,14-10,17.5c-1.9,1.8-4.4,3.4-7,4.1c-2.6,0.7-4,0.8-6.5,0
	c-2.3-0.8-2.4-3.2-0.9-4c0.5-0.3,1.3-0.3,2.2,0c0.9-0.1,1.8-0.4,2.6-0.7c2.6-1.2,5.7-4.2,7.5-6.5l2.3-3.2c0.3-0.5,0.7-1.1,1-1.7
	c2.1-3.9,4.2-9.1,5.9-13.3l2.5-5.9l1.6-3.6l0.8-1.9l1.4-3.1c1.4-2.8,3-5.3,4.5-8l3.9-6.4C197.6,78.6,201.1,73.5,208.1,70.8"/>
<path class="st2" d="M117.5,54.8c-3.7,16.5,10.9,37.2,21.5,52.3c2.8,4,7,9.5,4,14.3c-0.2,0.3-0.5,0.7-0.7,1
	c-1.9,2.2-3.9,0.9-5.5,2.4c-0.2,0.2-0.4,0.5-0.5,0.7c-0.1,0.2-0.1,0.5-0.1,0.7l0,0c0,0.2,0.1,0.5,0.3,0.7c0.2,0.3,0.4,0.5,0.7,0.7
	c0.2,0.2,0.5,0.3,0.8,0.4c0.2,0.1,0.5,0.1,0.8,0.1l0.8-0.1c0.2,0,0.4,0,0.7-0.1c0.3,0,0.5-0.1,0.7-0.1c1.7-0.3,3-0.8,4.4-1.9
	c0.3-0.2,0.7-0.5,1-0.8c0.6-0.5,1.1-1,1.6-1.6c0.4-0.6,0.8-1.2,1.1-1.9c0.3-0.7,0.5-1.3,0.6-2.1c0.1-0.7,0.2-1.5,0.1-2.3l0-0.2
	l-0.7-3.6l-0.1-0.3c-0.2-0.6-0.5-1.3-0.7-1.9c-0.3-0.6-0.6-1.2-0.9-1.8c-0.4-0.7-0.8-1.5-1.2-2.2c-0.2-0.3-0.4-0.7-0.6-1
	c-0.3-0.4-0.5-0.7-0.7-1c-0.2-0.4-0.5-0.8-0.9-1.3c-0.3-0.4-0.6-0.9-0.9-1.4c-0.3-0.4-0.6-0.8-0.9-1.3c-0.4-0.5-0.7-0.9-0.9-1.3
	c-0.5-0.7-1-1.4-1.5-2l0,0c-2.5-3.1-5.5-7.3-8.3-11.5c-2.4-3.7-4.5-7.3-6-10.3c-1-2.1-2.2-5.2-3.1-8.4
	c-7.3-25.8,18.4-26.2,28.3-10.3c7.7,12.2-4.6,20.5-13.4,9.7c-0.7-0.8-2.8-3.9-0.7-4.7c0.2-0.1,0.4-0.1,0.6-0.1
	c0.2,0,0.4-0.1,0.6-0.1c0.1,0,0.2-0.1,0.3-0.1c0.2,0,0.5-0.1,0.7-0.2c0.2-0.1,0.4-0.2,0.5-0.3c0.2-0.1,0.3-0.3,0.4-0.5
	c0.1-0.2,0.2-0.5,0.2-0.7l0-0.1c0-0.2,0-0.4-0.1-0.6c-0.1-0.3-0.2-0.5-0.4-0.7c-0.2-0.2-0.4-0.4-0.6-0.5c-0.2-0.1-0.4-0.2-0.6-0.3
	c-0.3-0.1-0.6-0.1-1-0.1c-0.3,0-0.6,0-1,0c-0.4,0-0.7,0.1-1,0.2c-0.3,0.1-0.7,0.2-1,0.4c-0.6,0.4-1.1,0.8-1.6,1.2
	c-0.5,0.5-0.8,1-1.1,1.5c-0.2,0.4-0.4,0.8-0.5,1.2c-0.1,0.4-0.2,0.8-0.3,1.3l-0.1,1.6c0,0.5,0.1,1,0.2,1.5c0.1,0.5,0.3,1,0.5,1.5
	c0.2,0.5,0.4,0.9,0.7,1.4c0.2,0.4,0.5,0.9,0.8,1.3c0.3,0.4,0.5,0.8,0.8,1.1c0.3,0.3,0.6,0.7,0.9,1c0.3,0.3,0.6,0.6,1,0.9
	c0.3,0.3,0.7,0.6,1.1,0.8c0.5,0.3,1,0.7,1.5,1c0.5,0.3,1.1,0.5,1.6,0.8c0.6,0.2,1.1,0.4,1.7,0.6c0.6,0.2,1.1,0.3,1.7,0.4
	c5.9,1,12.7-1.4,14.6-7.6c0.1-0.1,0.2-0.5,0.2-0.7C165.9,44.9,123.2,29.3,117.5,54.8"/>
<path class="st2" d="M94.9,123.8c-0.3-0.4-0.5-0.8-0.7-1.2c-5.3-8.7-9.5-19.1-13.7-29.6c-5.7-14-16.7-43.9-35-51.3
	c-0.6-0.2-1.2-0.5-1.9-0.7C27.1,35.7,13.1,54,24.2,66.5c1.2,1.4,2.7,2.5,4.2,3.3c1.5,0.8,3,1.2,4.4,1.2c2,0,3.8-0.8,4.8-2.6
	c0.3-0.5,0.5-1.1,0.5-1.8c0.1-1.1,0-2.3-1.1-2.9c-0.2-0.1-0.4-0.2-0.6-0.2c-1.8-0.2-4.2,2.3-6.6,0.5c-6-4.3-3.6-21.1,12.1-15.8
	c0.7,0.2,1.4,0.5,2.1,0.8c6.3,2.9,11,7.1,15,12.2c3.9,5,7.1,10.8,10,16.8c0.4,0.8,0.7,1.5,1.1,2.3c0.3,0.7,0.6,1.5,1,2.3
	c2.4,5.6,4.4,11.1,6.5,16.6c3.4,9,6.7,18,11.2,26.8c0.4,0.7,0.7,1.4,1.1,2c0.4,0.7,0.8,1.3,1.2,2c0.4,0.7,0.8,1.3,1.3,2
	c0.4,0.7,0.9,1.3,1.3,1.9c0.3,0.4,0.7,0.8,1,1.3c0.4,0.4,0.7,0.8,1.1,1.2c0.4,0.4,0.8,0.7,1.2,1.1c0.4,0.3,0.8,0.7,1.2,1
	c0.5,0.4,1,0.8,1.6,1.1c0.5,0.3,1.1,0.7,1.6,1c2.1,1.1,4.4,1.9,6.8,2.1c2,0.2,3.9-0.1,5.7-1.1c0.4-0.2,0.7-0.4,0.9-0.7
	c0.2-0.2,0.3-0.5,0.4-0.9c0.1-0.3,0-0.6,0-0.9c-0.1-0.3-0.2-0.6-0.5-1l-0.2-0.3l-0.3-0.1c-0.5-0.2-0.9-0.3-1.3-0.2
	c-0.4,0.1-0.7,0.2-1.1,0.4l-0.1,0l-0.1,0c-1.5-0.2-2.8-0.6-4.1-1.3c-1.3-0.6-2.4-1.4-3.6-2.3c-0.3-0.3-0.7-0.5-1-0.8
	c-0.3-0.3-0.7-0.6-1-0.9c-0.3-0.3-0.7-0.6-1-0.9c-0.3-0.3-0.6-0.6-0.9-0.9c-0.3-0.3-0.5-0.6-0.8-0.9c-0.2-0.3-0.5-0.6-0.7-0.8
	c-0.3-0.3-0.5-0.6-0.7-0.9c-0.2-0.3-0.5-0.6-0.7-0.9c-0.2-0.3-0.5-0.7-0.7-1l0,0c-0.2-0.2-0.3-0.5-0.5-0.7c-0.2-0.2-0.3-0.4-0.5-0.7
	C95.4,124.6,95.2,124.2,94.9,123.8"/>
<path class="st2" d="M198.6,113.6c-2.4,0-4.3,1.9-4.3,4.3c0,2.4,1.9,4.3,4.3,4.3c2.4,0,4.3-1.9,4.3-4.3
	C202.9,115.5,201,113.6,198.6,113.6 M202.9,107.1c0.1-0.1,0.3-0.1,0.4-0.1c0.1,0,0.3,0,0.4,0.1c0.1,0.1,0.3,0.2,0.4,0.3l1.6,1.7
	l1.6-1.6l0.1,0l0.3,0.2c0.1,0.1,0.2,0.1,0.3,0.2c0.1,0.1,0.2,0.2,0.3,0.3c0.2,0.2,0.3,0.3,0.4,0.5c0.1,0.1,0.1,0.3,0.1,0.4
	c0,0.1,0,0.3-0.1,0.4c-0.1,0.1-0.2,0.3-0.3,0.4l-1,1l2.2,2.2l0,0.1l-0.2,0.3c-0.1,0.1-0.1,0.2-0.2,0.3c-0.1,0.1-0.2,0.2-0.3,0.3
	c-0.2,0.2-0.3,0.3-0.5,0.4c-0.1,0.1-0.3,0.1-0.4,0.1c-0.1,0-0.3,0-0.4-0.1c-0.1-0.1-0.3-0.2-0.4-0.3l-1.6-1.7l-1.2,1.2l0.1,0.2
	c0.1,0.2,0.2,0.4,0.3,0.6c0.1,0.2,0.2,0.4,0.3,0.6c0.2,0.4,0.3,0.8,0.4,1.2c0.1,0.4,0.2,0.8,0.2,1.3c0,0.4,0,0.9-0.1,1.3
	c-0.1,0.4-0.2,0.9-0.4,1.3c-0.2,0.4-0.4,0.9-0.7,1.3c-0.3,0.4-0.6,0.8-1.1,1.2c-0.4,0.4-0.8,0.7-1.2,1c-0.4,0.3-0.8,0.5-1.3,0.7
	c-0.4,0.2-0.9,0.3-1.3,0.4c-4.8,0.9-9.1-3.5-8.1-8.3c0.1-0.4,0.2-0.9,0.4-1.3c0.2-0.4,0.4-0.8,0.7-1.3c0.3-0.4,0.6-0.8,1-1.2
	c0.4-0.4,0.8-0.7,1.2-1c0.4-0.3,0.8-0.5,1.3-0.7c0.4-0.2,0.9-0.3,1.3-0.4c0.4-0.1,0.9-0.1,1.3-0.1c0.4,0,0.8,0.1,1.3,0.2
	c0.4,0.1,0.8,0.3,1.2,0.5c0.2,0.1,0.4,0.2,0.6,0.3c0.2,0.1,0.4,0.2,0.6,0.4l0.2,0.1l1.2-1.2l-2.2-2.2l0-0.1l0.2-0.3
	c0.1-0.1,0.1-0.2,0.2-0.3c0.1-0.1,0.2-0.2,0.3-0.3C202.6,107.3,202.8,107.2,202.9,107.1z"/>
<path class="st0" d="M156.1,98l-1.3-10.7l-5.9,9.1L156.1,98z M159.1,100c-0.3,0.5-0.5,0.7-1,0.9c0,0-0.1,0-0.1,0c0,0-0.1,0-0.2,0
	c-0.1,0-0.1,0-0.2,0c-0.1,0-0.1,0-0.2,0l-11.8-2.7l-0.1-0.1l-0.1-0.1l-0.1-0.1c-0.1-0.1-0.2-0.2-0.2-0.4l0-0.1l0-0.1l0-0.1l0-0.1
	l0-0.1l0-0.2l0-0.2l0-0.1l0.1-0.1l0.1-0.2l0.1-0.2l0.3-0.5l0.4-0.7l0.7-1l0.8-1.2l1.8-2.6c0.4-0.6,0.8-1.1,1.2-1.6
	c0.4-0.5,0.8-1.1,1.2-1.6l0.5-0.6l0.7-0.9c0.7-0.1,1.2,0,1.9,0.1l0.3,0.1c0.1,0,0.2,0.1,0.3,0.1c0.1,0,0.2,0.1,0.3,0.1
	c0.1,0,0.2,0.1,0.3,0.1c0.1,0.1,0.2,0.1,0.3,0.2l0.1,0.1l0.1,0.1l0.1,0.1l0.1,0.1l0.1,0.1l0.1,0.1l0,0.1c0.2,0.4,0.2,1.1,0.3,1.6
	l0.3,1.6l0.3,1.7l0.3,1.8l0.3,1.8l0.2,1.7l0.2,1.6l0.2,1.3l-0.1,0.2L159.1,100z"/>
<path class="st0" d="M158.4,118.8c-0.2,0-0.3,0-0.5,0.1c-0.1,0-0.3,0.1-0.4,0.1c-0.1,0-0.3,0.1-0.4,0.1c-0.1,0.1-0.3,0.1-0.4,0.2
	c-0.1,0.1-0.2,0.1-0.3,0.2c-0.1,0.1-0.2,0.2-0.3,0.2c-0.1,0.1-0.2,0.2-0.3,0.3c-0.1,0.1-0.2,0.2-0.3,0.3c-0.1,0.1-0.2,0.2-0.2,0.3
	c-0.1,0.1-0.1,0.2-0.2,0.4c-0.1,0.1-0.1,0.3-0.2,0.4c0,0.1-0.1,0.3-0.1,0.4c0,0.1-0.1,0.3-0.1,0.4c0,0.1,0,0.3-0.1,0.4
	c0,0.2,0,0.3,0,0.5c0,0.2,0,0.3,0,0.5c0,0.2,0,0.3,0.1,0.4c0,0.1,0.1,0.3,0.1,0.4c0,0.1,0.1,0.3,0.1,0.4c0,0.1,0.1,0.3,0.2,0.4
	c0.1,0.1,0.1,0.2,0.2,0.4c0.1,0.1,0.1,0.2,0.2,0.3c0.1,0.1,0.2,0.2,0.3,0.3c0.1,0.1,0.2,0.2,0.3,0.3c0.1,0.1,0.2,0.2,0.3,0.2
	c0.1,0.1,0.2,0.1,0.3,0.2c0.1,0.1,0.2,0.1,0.4,0.2c0.1,0.1,0.3,0.1,0.4,0.1c0.1,0,0.3,0.1,0.4,0.1c0.1,0,0.3,0,0.5,0.1
	c0.2,0,0.3,0,0.5,0c0.2,0,0.3,0,0.5,0c0.2,0,0.3,0,0.5-0.1c0.1,0,0.3-0.1,0.4-0.1c0.1,0,0.3-0.1,0.4-0.1c0.1-0.1,0.3-0.1,0.4-0.2
	c0.1-0.1,0.2-0.1,0.3-0.2c0.1-0.1,0.2-0.2,0.3-0.2c0.1-0.1,0.2-0.2,0.3-0.3c0.1-0.1,0.2-0.2,0.3-0.3c0.1-0.1,0.2-0.2,0.2-0.3
	c0.1-0.1,0.1-0.2,0.2-0.4c0.1-0.1,0.1-0.3,0.2-0.4c0-0.1,0.1-0.3,0.1-0.4c0-0.1,0.1-0.3,0.1-0.4c0-0.1,0-0.3,0.1-0.4
	c0-0.2,0-0.3,0-0.5c0-0.2,0-0.3,0-0.5c0-0.2,0-0.3-0.1-0.4c0-0.1-0.1-0.3-0.1-0.4c0-0.1-0.1-0.3-0.1-0.4c0-0.1-0.1-0.3-0.2-0.4
	c-0.1-0.1-0.1-0.2-0.2-0.4c-0.1-0.1-0.1-0.2-0.2-0.3c-0.1-0.1-0.2-0.2-0.3-0.3c-0.1-0.1-0.2-0.2-0.3-0.3c-0.1-0.1-0.2-0.2-0.3-0.2
	c-0.1-0.1-0.2-0.1-0.3-0.2c-0.1-0.1-0.2-0.1-0.4-0.2c-0.1-0.1-0.3-0.1-0.4-0.1c-0.1,0-0.3-0.1-0.4-0.1c-0.1,0-0.3,0-0.5-0.1
	c-0.2,0-0.3,0-0.5,0C158.7,118.8,158.6,118.8,158.4,118.8 M157.3,122.3c0.2-0.1,0.4-0.1,0.6-0.1c0.2,0,0.4,0,0.6,0.1
	c0.2,0.1,0.4,0.2,0.5,0.3c0.1,0.1,0.3,0.3,0.3,0.5c0.1,0.2,0.1,0.4,0.1,0.6c0,0.2,0,0.4-0.1,0.6c-0.1,0.2-0.2,0.4-0.3,0.5
	c-0.1,0.1-0.3,0.3-0.5,0.3c-0.2,0.1-0.4,0.1-0.6,0.1c-0.2,0-0.4,0-0.6-0.1c-0.2-0.1-0.4-0.2-0.5-0.3c-0.1-0.1-0.3-0.3-0.3-0.5
	c-0.1-0.2-0.1-0.4-0.1-0.6c0-0.2,0-0.4,0.1-0.6c0.1-0.2,0.2-0.4,0.3-0.5C156.9,122.5,157.1,122.4,157.3,122.3z M157,116.2
	c0-0.1,0.1-0.2,0.1-0.4c0-0.1,0.1-0.2,0.2-0.3c0.1-0.1,0.2-0.2,0.2-0.3c0.1-0.1,0.2-0.2,0.3-0.2c0.1-0.1,0.2-0.1,0.3-0.2
	c0.1,0,0.2-0.1,0.4-0.1c0.1,0,0.3,0,0.4,0c0.1,0,0.3,0,0.4,0c0.1,0,0.2,0.1,0.4,0.1c0.1,0,0.2,0.1,0.3,0.2c0.1,0.1,0.2,0.1,0.3,0.2
	c0.2,0.2,0.3,0.4,0.4,0.6c0.1,0.2,0.1,0.5,0.1,0.8c0,0.1,0,0.2,0,0.4c0,0.1,0,0.2-0.1,0.3c0.3,0.1,0.5,0.2,0.7,0.2l0.3,0.1
	c0.1-0.1,0.2-0.2,0.2-0.3c0.1-0.1,0.2-0.2,0.3-0.2c0.1-0.1,0.2-0.1,0.3-0.2c0.1,0,0.2-0.1,0.4-0.1c0.1,0,0.2,0,0.4,0
	c0.1,0,0.3,0,0.4,0c0.1,0,0.2,0.1,0.4,0.1c0.1,0,0.2,0.1,0.3,0.2c0.1,0.1,0.2,0.1,0.3,0.2c0.1,0.1,0.2,0.2,0.2,0.3
	c0.1,0.1,0.1,0.2,0.2,0.3c0.1,0.2,0.1,0.5,0.1,0.8c0,0.1,0,0.3,0,0.4c0,0.1-0.1,0.2-0.1,0.4c0,0.1-0.1,0.2-0.2,0.3
	c-0.1,0.1-0.1,0.2-0.2,0.3c-0.1,0.1-0.1,0.1-0.2,0.1c0.1,0.2,0.2,0.4,0.3,0.6l0.1,0.3l0.1,0.3l0.1,0c0.3,0,0.5,0,0.8,0.1
	c0.1,0,0.2,0.1,0.3,0.2c0.1,0.1,0.2,0.1,0.3,0.2c0.1,0.1,0.2,0.2,0.2,0.3c0.1,0.1,0.1,0.2,0.2,0.3c0,0.1,0.1,0.2,0.1,0.4
	c0,0.1,0,0.3,0,0.4c0,0.3,0,0.5-0.1,0.8c-0.1,0.2-0.2,0.4-0.4,0.6c-0.1,0.1-0.2,0.2-0.3,0.2c-0.1,0.1-0.2,0.1-0.3,0.2
	c-0.1,0-0.2,0.1-0.4,0.1c-0.1,0-0.3,0-0.4,0l-0.1,0c-0.1,0.4-0.3,0.8-0.5,1.1l0.1,0.1c0.1,0.1,0.2,0.2,0.2,0.3
	c0.1,0.1,0.1,0.2,0.2,0.3c0,0.1,0.1,0.2,0.1,0.4c0,0.1,0,0.3,0,0.4c0,0.1,0,0.3,0,0.4c0,0.1-0.1,0.3-0.1,0.4c0,0.1-0.1,0.2-0.2,0.3
	c-0.1,0.1-0.1,0.2-0.2,0.3c-0.1,0.1-0.2,0.2-0.3,0.2c-0.1,0.1-0.2,0.1-0.3,0.2c-0.1,0-0.2,0.1-0.4,0.1c-0.1,0-0.3,0-0.4,0
	c-0.3,0-0.5,0-0.7-0.1c-0.2-0.1-0.4-0.2-0.6-0.4c-0.1-0.1-0.2-0.2-0.3-0.3l-0.2,0.1l-0.4,0.1l-0.4,0.1l0,0.1l0,0.2l0,0.2l0,0.2
	c0,0.3,0,0.5-0.1,0.8c-0.1,0.2-0.2,0.4-0.4,0.6c-0.1,0.1-0.2,0.2-0.3,0.2c-0.1,0.1-0.2,0.1-0.3,0.2c-0.1,0-0.2,0.1-0.4,0.1
	c-0.1,0-0.3,0-0.4,0c-0.1,0-0.3,0-0.4,0c-0.1,0-0.2-0.1-0.4-0.1c-0.1,0-0.2-0.1-0.3-0.2c-0.1-0.1-0.2-0.1-0.3-0.2
	c-0.1-0.1-0.2-0.2-0.2-0.3c-0.1-0.1-0.1-0.2-0.2-0.3c0-0.1-0.1-0.2-0.1-0.4c0-0.1,0-0.3,0-0.4c0-0.1,0-0.2,0-0.4
	c0-0.1,0-0.2,0.1-0.3l-0.2,0l-0.2-0.1l-0.2-0.1l-0.2-0.1l-0.2-0.1l-0.1,0.1c0,0-0.1,0.1-0.1,0.1c-0.1,0.1-0.2,0.2-0.3,0.2
	c-0.1,0.1-0.2,0.1-0.3,0.2c-0.1,0-0.2,0.1-0.4,0.1c-0.1,0-0.2,0-0.4,0c-0.3,0-0.5,0-0.8-0.1c-0.2-0.1-0.4-0.2-0.6-0.4
	c-0.1-0.1-0.2-0.2-0.2-0.3c-0.1-0.1-0.1-0.2-0.2-0.3c0-0.1-0.1-0.2-0.1-0.4c0-0.1,0-0.3,0-0.4c0-0.1,0-0.3,0-0.4
	c0-0.1,0.1-0.2,0.1-0.4c0-0.1,0.1-0.2,0.2-0.3c0.1-0.1,0.1-0.2,0.2-0.3l0.1-0.1c-0.2-0.4-0.3-0.7-0.5-1.1l0,0c-0.1,0-0.3,0-0.4,0
	c-0.1,0-0.3-0.1-0.4-0.1c-0.1,0-0.2-0.1-0.3-0.2c-0.1-0.1-0.2-0.1-0.3-0.2c-0.1-0.1-0.2-0.2-0.2-0.3c-0.1-0.1-0.1-0.2-0.2-0.3
	c-0.1-0.2-0.1-0.5-0.1-0.8c0-0.3,0-0.5,0.1-0.8c0.1-0.2,0.2-0.4,0.4-0.6c0.1-0.1,0.2-0.2,0.3-0.2c0.1-0.1,0.2-0.1,0.3-0.2
	c0.1,0,0.2-0.1,0.4-0.1c0.1,0,0.3,0,0.4,0l0.1,0c0.1-0.2,0.1-0.3,0.2-0.5c0-0.1,0.1-0.2,0.1-0.3c0-0.1,0.1-0.2,0.1-0.3l-0.1-0.1
	c-0.1-0.1-0.2-0.2-0.2-0.3c-0.1-0.1-0.1-0.2-0.2-0.3c0-0.1-0.1-0.2-0.1-0.4c0-0.1,0-0.3,0-0.4c0-0.1,0-0.3,0-0.4
	c0-0.1,0.1-0.2,0.1-0.4c0-0.1,0.1-0.2,0.2-0.3c0.1-0.1,0.1-0.2,0.2-0.3c0.1-0.1,0.2-0.2,0.3-0.2c0.1-0.1,0.2-0.1,0.3-0.2
	c0.1,0,0.2-0.1,0.4-0.1c0.1,0,0.3,0,0.4,0c0.1,0,0.3,0,0.4,0c0.1,0,0.2,0.1,0.4,0.1c0.1,0,0.2,0.1,0.3,0.2c0.1,0.1,0.2,0.1,0.3,0.2
	l0.1,0.1l0.1,0.1l0.2-0.1l0.2-0.1l0.2-0.1l0.2-0.1l0.2,0l0-0.1l0-0.2l0-0.2l0-0.2C157,116.4,157,116.3,157,116.2z"/>
<path class="st0" d="M95,70.6c0.8,0.2,1.2,0.9,1.7,1.4c1.7,1.9,4,2.9,6.1,4.3c3.3,2.1,6.8,3.9,9.8,6.4c3.6,3.3,6.4,7.4,8.4,11.8
	c1.2,2.6,2.3,5.2,2.9,7.9c1.3,5.3,2.4,10.7,2.8,16.2c0.1,2,1.1,4.1,0.3,6.1c-0.8,1.4-2.6,1.1-3.9,0.7c-3-1-6.2-1.7-9-3.2
	c-3.3-1.6-6.6-3.4-9.2-6c-4.7-4-8.3-9.5-9.2-15.7c-0.5-2.5-0.3-5.1-0.5-7.6c-0.1-0.9,0-1.9,0.1-2.8c0.4-4.4-0.1-8.7-0.7-13
	C94.4,76.3,92.2,69.7,95,70.6"/>
<path class="st1" d="M99.1,77.6c3.2,1.9,6.4,3.7,9.4,5.7c5.1,3.4,8.2,8.9,10.5,14.3c2.5,6.5,3.7,13.4,4.4,20.3
	c-7.9-10.3-14.1-21.8-20.4-33.1C101.9,82.3,100.3,80.1,99.1,77.6"/>
<path class="st1" d="M99.1,85c3.1,5.2,5.9,10.5,8.9,15.8c2.9,4.9,6.1,9.7,9.2,14.5c1.5,2.2,3,4.3,4.6,6.4c-4.1-1-8-2.9-11.5-5.3
	c-5.1-3.6-9.5-8.6-10.9-14.8c-0.7-2.3-0.4-4.7-0.5-7C98.8,91.4,99.3,88.2,99.1,85"/>
<path class="st0" d="M194.7,30.4c0.8-1.3,2.7-2.2,3-0.1c0.1,2.7-1.2,5.3-1.3,8c-0.4,3.7-0.7,7.4-0.6,11.2c0,1.8,0.3,3.6,0.2,5.4
	c-0.2,2.8,0,5.6-0.4,8.3c-0.8,7.1-4.2,13.7-9.3,18.7c-2.8,3.2-6.5,5.4-10.2,7.4c-2.2,1.2-4.7,1.8-7,2.8c-1.2,0.4-2.7,1-3.9,0.2
	c-1.2-1-1-2.8-0.8-4.2c0.7-3.8,0.7-7.7,1.4-11.5c0.7-4.7,1.5-9.5,2.8-14.1c2-6.3,4.6-12.5,8.8-17.6c3-3.8,7.3-6.2,11.1-9.1
	C190.6,34,193.1,32.7,194.7,30.4"/>
<path class="st1" d="M180.5,45.8c3.5-3.5,7.8-6,11.8-8.9c-0.7,1.9-1.7,3.7-2.6,5.5c-2.8,6.3-5.9,12.4-8.9,18.5
	c-3.8,7.8-8,15.4-12.6,22.7c0.7-7.7,1.8-15.5,4.2-22.9C174.2,55.3,176.7,50,180.5,45.8"/>
<path class="st1" d="M180.1,70c4.4-7.9,7.8-16.3,12-24.3c-0.1,4.3,0.3,8.5,0,12.8c0.3,4.1-0.7,8.2-2.2,11.9
	c-3.9,8.4-11.6,15-20.5,17.7C173.5,82.3,176.7,76.1,180.1,70"/>
<text transform="matrix(1 0 0 1 50.8167 296.4231)"><tspan x="0" y="0" class="st0 st3 st4">MASALA</tspan><tspan x="0" y="46.8" class="st0 st3 st4 st5">FUND</tspan></text>
</svg>
