<?xml version="1.0" encoding="utf-8"?>
<!-- Generator: Adobe Illustrator 19.0.0, SVG Export Plug-In . SVG Version: 6.00 Build 0)  -->
<svg version="1.1" id="Layer_1" xmlns="http://www.w3.org/2000/svg" xmlns:xlink="http://www.w3.org/1999/xlink" x="0px" y="0px"
	 viewBox="0 0 438.5 218.2" style="enable-background:new 0 0 438.5 218.2;" xml:space="preserve">
<style type="text/css">
	.st0{fill:#232323;}
	.st1{fill:#FFFFFF;}
	.st2{fill-rule:evenodd;clip-rule:evenodd;fill:#232323;}
</style>
<path class="st0" d="M104.1,111.9l0.2,0.3l2.2-0.5l2,9c0,0.1,0,0.2,0.1,0.3c0,0.1,0.1,0.2,0.1,0.2c0,0.1,0.1,0.1,0.1,0.2
	c0,0.1,0.1,0.1,0.1,0.2l0.1,0.1c0,0,0.1,0.1,0.1,0.1l0.1,0.1l0.1,0l0.1,0l0.1,0l0.2,0l0.2,0l0.2,0l0.2,0l0.3,0l0.3-0.1l0.3-0.1
	l0.3-0.1l0.3-0.1l0.3-0.1l0.3-0.1l-2.3-10.4l4.3-1l1.7,7.4c0.1,0.6,0.3,1.1,0.5,1.5c0.2,0.4,0.5,0.7,0.7,0.9c0.3,0.2,0.6,0.3,1,0.4
	c0.4,0,0.8,0,1.3-0.1c0.2-0.1,0.4-0.1,0.6-0.2c0.2-0.1,0.3-0.1,0.5-0.2c0.1-0.1,0.2-0.2,0.3-0.2c0.1-0.1,0.2-0.2,0.2-0.3
	c0.1-0.1,0.1-0.2,0.2-0.3c0-0.1,0.1-0.2,0.1-0.3c0-0.1,0-0.2,0-0.3c0-0.1,0-0.2,0-0.4l0-0.2l0-0.1l-0.1,0l-0.2,0
	c-0.2,0-0.3,0-0.5-0.1c-0.1-0.1-0.3-0.1-0.4-0.2c-0.1-0.1-0.2-0.2-0.4-0.3c-0.1-0.1-0.2-0.3-0.3-0.4c-0.1-0.1-0.1-0.3-0.2-0.4
	c-0.1-0.2-0.1-0.3-0.1-0.5l-1.4-6.2l1.6-0.4c0.1,0,0.2,0,0.2-0.1c0.1,0,0.1-0.1,0.2-0.1c0,0,0.1-0.1,0.1-0.1c0,0,0.1-0.1,0.1-0.1
	c0,0,0-0.1,0.1-0.1c0-0.1,0-0.1,0-0.2c0-0.1,0-0.2,0-0.3c0-0.1,0-0.3-0.1-0.4c0-0.1,0-0.2-0.1-0.2l-0.1-0.2c0-0.1-0.1-0.1-0.1-0.2
	c-0.1-0.2-0.2-0.3-0.3-0.5l-14.9,3.3c-0.1,0-0.2,0-0.2,0.1c-0.1,0-0.1,0.1-0.2,0.1c0,0-0.1,0.1-0.1,0.1c0,0-0.1,0.1-0.1,0.1
	c0,0,0,0.1-0.1,0.1c0,0.1,0,0.1,0,0.2c0,0.1,0,0.2,0,0.3c0,0.1,0,0.3,0.1,0.4c0,0.1,0,0.2,0.1,0.2c0,0.1,0,0.1,0.1,0.2
	c0,0.1,0.1,0.1,0.1,0.2L104.1,111.9z"/>
<path class="st0" d="M53.2,76.7c0.2-0.2,0.4-0.5,0.5-0.7l-6-9.6c-0.2-0.3-0.4-0.5-0.6-0.7c-0.2-0.2-0.5-0.3-0.7-0.3
	c-0.2-0.1-0.5,0-0.8,0c-0.4,0.1-0.8,0.3-1.3,0.6c-0.3,0.2-0.5,0.3-0.7,0.5c-0.2,0.2-0.4,0.4-0.6,0.6h0c-0.2,0.2-0.4,0.5-0.5,0.7
	l6,9.6c0.2,0.3,0.4,0.5,0.6,0.7c0.2,0.2,0.5,0.3,0.7,0.3c0.2,0.1,0.5,0,0.8,0c0.1,0,0.2-0.1,0.4-0.1l1.3-0.7
	c0.1-0.1,0.2-0.2,0.3-0.3C52.8,77.1,53,76.9,53.2,76.7 M47.9,80.4c-0.1-0.1-0.2-0.2-0.4-0.3c-0.5-0.4-0.9-0.8-1.2-1.4l-6.8-10.8
	l0.4-0.6c0.1-0.2,0.3-0.5,0.5-0.8c0.2-0.2,0.4-0.5,0.6-0.9l0,0c0.3-0.3,0.6-0.7,0.9-1c0.3-0.3,0.7-0.6,1.1-0.8
	c0.7-0.4,1.4-0.7,2-0.9c0.7-0.2,1.4-0.2,2,0c0.6,0.1,1.1,0.4,1.6,0.8c0.5,0.4,0.9,0.8,1.2,1.4l6.6,10.4c0,0,0.1,0,0.1,0
	c0.3,0.1,0.5,0.2,0.7,0.5c0.1,0.2,0.2,0.4,0.2,0.7c0,0.3,0.1,0.6,0.1,0.9l0.4,7.6c0,0.3,0,0.6-0.1,0.9c-0.1,0.2-0.3,0.4-0.5,0.6
	c-0.3,0.1-0.5,0.2-0.8,0.2c-0.2,0-0.5-0.2-0.8-0.4l-6.5-4.2c-0.3-0.2-0.6-0.4-0.8-0.5c-0.2-0.2-0.4-0.4-0.5-0.6
	C47.9,81,47.8,80.7,47.9,80.4L47.9,80.4z M55.1,78.8L54,79.4c-0.2,0.2-0.5,0.3-0.7,0.5c-0.5,0.3-1,0.6-1.5,0.7l-0.2,0.1l4,2.8
	L55.1,78.8z"/>
<path class="st0" d="M37.1,85.9c0.8,0.6,1.6,1.1,2.4,1.7c3.4,2.9,6.4,6.2,9.2,9.7c2.7,3.3,5.3,6.7,8,10c2.9,3.5,6.2,6.5,10.2,8.6
	c1.3,0.7,2.9,1.1,4.4,1.4c-3-2.6-6.1-5-8.9-7.8c-2.5-2.5-4.6-5.3-6.9-8c-3.7-4.4-7.4-8.6-12.2-11.8c-1.2-0.8-2.1-1.8-3.3-2.7
	c-0.8-0.6-1.8-1-2.6-1.5C37.3,85.6,37.2,85.7,37.1,85.9"/>
<path class="st0" d="M32.1,86.3c3.1,2.6,5.5,5.8,7.7,9.1c1.9,2.9,3.4,6,5.1,9c2.2,3.9,4.9,7.2,8.6,9.8c2.9,2.1,6,3.3,9.3,4.2
	c0.9,0.2,1.8,0.3,2.7,0.4c-2.3-1.8-4.5-3.6-6.8-5.3c-2.5-1.8-4.2-4.5-6.2-6.7c-3.8-4.4-7.4-8.9-11.2-13.3
	C38.7,90.6,35.7,88,32.1,86.3 M37.1,85.9c0.8,0.6,1.6,1.1,2.4,1.7c3.4,2.9,6.4,6.2,9.2,9.7c2.7,3.3,5.3,6.7,8,10
	c2.9,3.5,6.2,6.5,10.2,8.6c1.3,0.7,2.9,1.1,4.4,1.4c-3-2.6-6.1-5-8.9-7.8c-2.5-2.5-4.6-5.3-6.9-8c-3.7-4.4-7.4-8.6-12.2-11.8
	c-1.2-0.8-2.1-1.8-3.3-2.7c-0.8-0.6-1.8-1-2.6-1.5C37.3,85.6,37.2,85.7,37.1,85.9z M42.9,85.6c2.8,2.2,5.7,4.3,8.4,6.8
	c3.6,3.5,6.7,7.3,9.9,11c1.9,2.2,3.7,4.5,5.9,6.4c4.2,3.6,8.6,6.9,13.2,9.9c0.8,0.5,1.2,1.1,0.9,1.9c-0.3,0.8-1.1,1.1-2,0.9
	c-1.9-0.5-3.8-0.4-5.8-0.3c-2.6,0.1-5.2-0.1-7.8-0.2c-3.1-0.2-5.9-1.3-8.9-2.3c-3-1-5.4-3-7.7-4.9C43.2,109.8,11.1,60.5,42.9,85.6z"
	/>
<path class="st1" d="M32.1,86.3c3.1,2.6,5.5,5.8,7.7,9.1c1.9,2.9,3.4,6,5.1,9c2.2,3.9,4.9,7.2,8.6,9.8c2.9,2.1,6,3.3,9.3,4.2
	c0.9,0.2,1.8,0.3,2.7,0.4c-2.3-1.8-4.5-3.6-6.8-5.3c-2.5-1.8-4.2-4.5-6.2-6.7c-3.8-4.4-7.4-8.9-11.2-13.3
	C38.7,90.6,35.7,88,32.1,86.3"/>
<path class="st1" d="M37.1,85.9c0.8,0.6,1.6,1.1,2.4,1.7c3.4,2.9,6.4,6.2,9.2,9.7c2.7,3.3,5.3,6.7,8,10c2.9,3.5,6.2,6.5,10.2,8.6
	c1.3,0.7,2.9,1.1,4.4,1.4c-3-2.6-6.1-5-8.9-7.8c-2.5-2.5-4.6-5.3-6.9-8c-3.7-4.4-7.4-8.6-12.2-11.8c-1.2-0.8-2.1-1.8-3.3-2.7
	c-0.8-0.6-1.8-1-2.6-1.5C37.3,85.6,37.2,85.7,37.1,85.9"/>
<path class="st0" d="M167.4,119.4c0.8-0.5,1.6-1.1,2.5-1.6c4-2.1,8.2-3.5,12.5-4.9c4.1-1.3,8.2-2.3,12.3-3.6
	c4.3-1.3,8.3-3.3,11.9-6.1c1.2-1,2.1-2.2,3-3.5c-3.5,1.8-6.9,3.7-10.5,5.3c-3.2,1.4-6.7,2.3-10,3.3c-5.4,1.7-10.8,3.6-15.6,6.8
	c-1.2,0.8-2.5,1.3-3.7,2c-0.9,0.5-1.6,1.2-2.4,1.9C167.2,119.1,167.3,119.3,167.4,119.4"/>
<path class="st0" d="M165.8,124.2c3.6-1.9,7.4-2.9,11.4-3.6c3.4-0.6,6.9-0.8,10.3-1.2c4.4-0.5,8.5-1.9,12.4-4.2c3-1.9,5.3-4.3,7.4-7
	c0.6-0.7,1-1.6,1.4-2.3c-2.5,1.4-5,2.8-7.5,4.3c-2.7,1.6-5.7,2.2-8.6,3.2c-5.5,1.9-11.1,3.4-16.5,5.3
	C172.3,119.7,168.8,121.5,165.8,124.2 M167.4,119.4c0.8-0.5,1.6-1.1,2.5-1.6c4-2.1,8.2-3.5,12.5-4.9c4.1-1.3,8.2-2.3,12.3-3.6
	c4.3-1.3,8.3-3.3,11.9-6.1c1.2-1,2.1-2.2,3-3.5c-3.5,1.8-6.9,3.7-10.6,5.3c-3.2,1.4-6.7,2.3-10,3.3c-5.4,1.7-10.8,3.6-15.6,6.8
	c-1.2,0.8-2.5,1.3-3.7,2c-0.9,0.5-1.6,1.2-2.4,1.9C167.2,119.1,167.3,119.3,167.4,119.4z M169.3,113.9c3.1-1.8,6.1-3.7,9.5-5.1
	c4.6-2,9.2-3.4,13.9-4.9c2.8-0.9,5.6-1.7,8.2-3c4.9-2.5,9.6-5.3,14.2-8.5c0.8-0.5,1.5-0.7,2.1-0.1c0.6,0.6,0.6,1.4,0.1,2.1
	c-1.2,1.6-1.8,3.4-2.5,5.2c-0.9,2.4-2,4.8-3.1,7.1c-1.3,2.8-3.4,5-5.5,7.3c-2.1,2.4-4.8,3.8-7.5,5.2
	C191.8,122.9,134.1,133.9,169.3,113.9z"/>
<path class="st1" d="M165.8,124.2c3.6-1.9,7.4-2.9,11.4-3.6c3.4-0.6,6.9-0.8,10.3-1.2c4.4-0.5,8.5-1.9,12.4-4.2c3-1.9,5.3-4.3,7.4-7
	c0.6-0.7,1-1.6,1.4-2.3c-2.5,1.4-5,2.8-7.5,4.3c-2.7,1.6-5.7,2.2-8.6,3.2c-5.5,1.9-11.1,3.4-16.5,5.3
	C172.3,119.7,168.8,121.5,165.8,124.2"/>
<path class="st1" d="M167.4,119.4c0.8-0.5,1.6-1.1,2.5-1.6c4-2.1,8.2-3.5,12.5-4.9c4.1-1.3,8.2-2.3,12.3-3.6
	c4.3-1.3,8.3-3.3,11.9-6.1c1.2-1,2.1-2.2,3-3.5c-3.5,1.8-6.9,3.7-10.6,5.3c-3.2,1.4-6.7,2.3-10,3.3c-5.4,1.7-10.8,3.6-15.6,6.8
	c-1.2,0.8-2.5,1.3-3.7,2c-0.9,0.5-1.6,1.2-2.4,1.9C167.2,119.1,167.3,119.3,167.4,119.4"/>
<path class="st0" d="M169.5,132.6c12.8,1,20.8,5.1,20,15.2c-1.2,15.3-7.1,29.6-17.2,40.9c-9.4,10.5-22.5,18.2-39.1,21.7
	c-6.5,1.4-13.1,2.2-19.7,2.3c-6.6,0.1-13.2-0.6-19.8-2.3c-5-1.3-9.8-3-14.4-5c-4.6-2.1-9-4.6-13-7.6c-8.5-6.4-15.6-14.3-21-23
	c-5.4-8.8-9-18.3-10.5-28.2c-1.5-9.5,1.9-13.3,8.1-14.2l0,0c4.5-0.7,10.4,0.5,16.8,1.9c5.6,1.2,11.7,2.4,17.1,2.5l0.2,0l0.1,0
	c13.8,1.5,32.3-0.3,50-2C143,133.1,158.3,131.7,169.5,132.6 M183.5,147.3c0.5-5.6-5.3-8-14.5-8.8c-10.8-0.9-25.8,0.6-41.4,2.1
	c-18,1.7-36.7,3.6-51.1,2c-6-0.1-12.3-1.4-18.1-2.6c-5.9-1.2-11.2-2.4-14.6-1.8v0c-2.6,0.4-3.9,2.3-3.1,7.4
	c1.4,9.1,4.7,17.9,9.7,25.9c5,8.1,11.6,15.4,19.5,21.3c3.7,2.8,7.6,5,11.8,6.9c4.3,1.9,8.8,3.4,13.5,4.7c6.1,1.6,12.2,2.2,18.3,2.2
	c6.1-0.1,12.3-0.9,18.5-2.2c15.2-3.1,27.2-10.3,35.8-19.8C177.1,174.4,182.4,161.3,183.5,147.3z"/>
<path class="st2" d="M192.7,46.3c14.8-5.8,25.6,11.1,15.2,19.5c-1.4,1.1-3.2,2.1-5,2.3c-1.9,0.2-3.8-0.5-4.8-2.1
	c-0.5-0.9-0.6-2-0.3-3.1l0.4-0.7c0.7-0.6,1.5-0.7,2.5-0.4c0.8,0.3,0.5,0.5,1,0.8c1,0.5,1.7,0,2.3-0.8c0.7-0.9,1-2.7,0.9-3.7
	c0-2.6-1.6-5.2-4.1-6.1c-1.9-0.7-4.7-0.2-6.6,0.7c-2.6,1.1-4.6,2.5-6.7,4.3l-2.3,2.3v0l-4.7,5.7l-1.7,2.8
	c-1.6,2.6-5.3,10.5-6.4,13.6l-3.9,10.1l-2.1,5.2c-1.8,4.9-6.3,14-10,17.5c-1.9,1.8-4.4,3.4-7,4.1c-2.6,0.7-4,0.8-6.5,0
	c-2.3-0.8-2.4-3.2-0.9-4c0.5-0.3,1.3-0.3,2.2,0c0.9-0.1,1.8-0.4,2.6-0.7c2.6-1.2,5.7-4.2,7.5-6.5l2.3-3.2c0.3-0.5,0.7-1.1,1-1.7
	c2.1-3.9,4.2-9.1,5.9-13.3l2.5-5.9l1.6-3.6l0.8-1.9l1.4-3.1c1.4-2.8,3-5.3,4.5-8l3.9-6.4C182.2,54.1,185.6,49.1,192.7,46.3"/>
<path class="st2" d="M102.1,30.3c-3.7,16.5,10.9,37.2,21.5,52.3c2.8,4,7,9.5,4,14.3c-0.2,0.3-0.5,0.7-0.7,1
	c-1.9,2.2-3.9,0.9-5.5,2.4c-0.2,0.2-0.4,0.5-0.5,0.7c-0.1,0.2-0.1,0.5-0.1,0.7l0,0c0,0.2,0.1,0.5,0.3,0.7c0.2,0.3,0.4,0.5,0.7,0.7
	c0.2,0.2,0.5,0.3,0.8,0.4c0.2,0.1,0.5,0.1,0.8,0.1l0.8-0.1c0.2,0,0.4,0,0.7-0.1c0.3,0,0.5-0.1,0.7-0.1c1.7-0.3,3-0.8,4.4-1.9
	c0.3-0.2,0.7-0.5,1-0.8c0.6-0.5,1.1-1,1.6-1.6c0.4-0.6,0.8-1.2,1.1-1.9c0.3-0.7,0.5-1.3,0.6-2.1c0.1-0.7,0.2-1.5,0.1-2.3l0-0.2
	l-0.7-3.6l-0.1-0.3c-0.2-0.6-0.5-1.3-0.7-1.9c-0.3-0.6-0.6-1.2-0.9-1.8c-0.4-0.7-0.8-1.5-1.2-2.2c-0.2-0.3-0.4-0.7-0.6-1
	c-0.3-0.4-0.5-0.7-0.7-1c-0.2-0.4-0.5-0.8-0.9-1.3c-0.3-0.4-0.6-0.9-0.9-1.4c-0.3-0.4-0.6-0.8-0.9-1.3c-0.4-0.5-0.7-0.9-0.9-1.3
	c-0.5-0.7-1-1.4-1.5-2l0,0c-2.5-3.1-5.5-7.3-8.3-11.5c-2.4-3.7-4.5-7.3-6-10.3c-1-2.1-2.2-5.2-3.1-8.4
	c-7.3-25.8,18.4-26.2,28.3-10.3c7.7,12.2-4.6,20.5-13.4,9.7c-0.7-0.8-2.8-3.9-0.7-4.7c0.2-0.1,0.4-0.1,0.6-0.1
	c0.2,0,0.4-0.1,0.6-0.1c0.1,0,0.2-0.1,0.3-0.1c0.2,0,0.5-0.1,0.7-0.2c0.2-0.1,0.4-0.2,0.5-0.3c0.2-0.1,0.3-0.3,0.4-0.5
	c0.1-0.2,0.2-0.5,0.2-0.7l0-0.1c0-0.2,0-0.4-0.1-0.6c-0.1-0.3-0.2-0.5-0.4-0.7c-0.2-0.2-0.4-0.4-0.6-0.5c-0.2-0.1-0.4-0.2-0.6-0.3
	c-0.3-0.1-0.6-0.1-1-0.1c-0.3,0-0.6,0-1,0c-0.4,0-0.7,0.1-1,0.2c-0.3,0.1-0.7,0.2-1,0.4c-0.6,0.4-1.1,0.8-1.6,1.2
	c-0.5,0.5-0.8,1-1.1,1.5c-0.2,0.4-0.4,0.8-0.5,1.2c-0.1,0.4-0.2,0.8-0.3,1.3l-0.1,1.6c0,0.5,0.1,1,0.2,1.5c0.1,0.5,0.3,1,0.5,1.5
	c0.2,0.5,0.4,0.9,0.7,1.4c0.2,0.4,0.5,0.9,0.8,1.3c0.3,0.4,0.5,0.8,0.8,1.1c0.3,0.3,0.6,0.7,0.9,1c0.3,0.3,0.6,0.6,1,0.9
	c0.3,0.3,0.7,0.6,1.1,0.8c0.5,0.3,1,0.7,1.5,1c0.5,0.3,1.1,0.5,1.6,0.8c0.6,0.2,1.1,0.4,1.7,0.6c0.6,0.2,1.1,0.3,1.7,0.4
	c5.9,1,12.7-1.4,14.6-7.6c0.1-0.1,0.2-0.5,0.2-0.7C150.5,20.4,107.8,4.9,102.1,30.3"/>
<path class="st2" d="M79.5,99.4c-0.3-0.4-0.5-0.8-0.7-1.2c-5.3-8.7-9.5-19.1-13.7-29.6c-5.7-14-16.7-43.9-35-51.3
	c-0.6-0.2-1.2-0.5-1.9-0.7C11.6,11.2-2.4,29.5,8.8,42c1.2,1.4,2.7,2.5,4.2,3.3c1.5,0.8,3,1.2,4.4,1.2c2,0,3.8-0.8,4.8-2.6
	c0.3-0.5,0.5-1.1,0.5-1.8c0.1-1.1,0-2.3-1.1-2.9c-0.2-0.1-0.4-0.2-0.6-0.2c-1.8-0.2-4.2,2.3-6.6,0.5c-6-4.3-3.6-21.1,12.1-15.8
	c0.7,0.2,1.4,0.5,2.1,0.8c6.3,2.9,11,7.1,15,12.2c3.9,5,7.1,10.8,10,16.8c0.4,0.8,0.7,1.5,1.1,2.3c0.3,0.7,0.6,1.5,1,2.3
	c2.4,5.6,4.4,11.1,6.5,16.6c3.4,9,6.7,18,11.2,26.8c0.4,0.7,0.7,1.4,1.1,2c0.4,0.7,0.8,1.3,1.2,2c0.4,0.7,0.8,1.3,1.3,2
	c0.4,0.7,0.9,1.3,1.3,1.9c0.3,0.4,0.7,0.8,1,1.3c0.4,0.4,0.7,0.8,1.1,1.2c0.4,0.4,0.8,0.7,1.2,1.1c0.4,0.3,0.8,0.7,1.2,1
	c0.5,0.4,1,0.8,1.6,1.1c0.5,0.3,1.1,0.7,1.6,1c2.1,1.1,4.4,1.9,6.8,2.1c2,0.2,3.9-0.1,5.7-1.1c0.4-0.2,0.7-0.4,0.9-0.7
	c0.2-0.2,0.3-0.5,0.4-0.9c0.1-0.3,0-0.6,0-0.9c-0.1-0.3-0.2-0.6-0.5-1l-0.2-0.3l-0.3-0.1c-0.5-0.2-0.9-0.3-1.3-0.2
	c-0.4,0.1-0.7,0.2-1.1,0.4l-0.1,0l-0.1,0c-1.5-0.2-2.8-0.6-4.1-1.3c-1.3-0.6-2.4-1.4-3.6-2.3c-0.3-0.3-0.7-0.5-1-0.8
	c-0.3-0.3-0.7-0.6-1-0.9c-0.3-0.3-0.7-0.6-1-0.9c-0.3-0.3-0.6-0.6-0.9-0.9c-0.3-0.3-0.5-0.6-0.8-0.9c-0.2-0.3-0.5-0.6-0.7-0.8
	c-0.3-0.3-0.5-0.6-0.7-0.9c-0.2-0.3-0.5-0.6-0.7-0.9c-0.2-0.3-0.5-0.7-0.7-1l0,0c-0.2-0.2-0.3-0.5-0.5-0.7c-0.2-0.2-0.3-0.4-0.5-0.7
	C80,100.1,79.7,99.8,79.5,99.4"/>
<path class="st2" d="M183.2,89.1c-2.4,0-4.3,1.9-4.3,4.3c0,2.4,1.9,4.3,4.3,4.3c2.4,0,4.3-1.9,4.3-4.3
	C187.4,91,185.5,89.1,183.2,89.1 M187.5,82.7c0.1-0.1,0.3-0.1,0.4-0.1c0.1,0,0.3,0,0.4,0.1c0.1,0.1,0.3,0.2,0.4,0.3l1.6,1.7l1.6-1.6
	l0.1,0l0.3,0.2c0.1,0.1,0.2,0.1,0.3,0.2c0.1,0.1,0.2,0.2,0.3,0.3c0.2,0.2,0.3,0.3,0.4,0.5c0.1,0.1,0.1,0.3,0.1,0.4
	c0,0.1,0,0.3-0.1,0.4c-0.1,0.1-0.2,0.3-0.3,0.4l-1,1l2.2,2.2l0,0.1L194,89c-0.1,0.1-0.1,0.2-0.2,0.3c-0.1,0.1-0.2,0.2-0.3,0.3
	c-0.2,0.2-0.3,0.3-0.5,0.4c-0.1,0.1-0.3,0.1-0.4,0.1c-0.1,0-0.3,0-0.4-0.1c-0.1-0.1-0.3-0.2-0.4-0.3l-1.6-1.7l-1.2,1.2l0.1,0.2
	c0.1,0.2,0.2,0.4,0.3,0.6c0.1,0.2,0.2,0.4,0.3,0.6c0.2,0.4,0.3,0.8,0.4,1.2c0.1,0.4,0.2,0.8,0.2,1.3c0,0.4,0,0.9-0.1,1.3
	c-0.1,0.4-0.2,0.9-0.4,1.3c-0.2,0.4-0.4,0.9-0.7,1.3c-0.3,0.4-0.6,0.8-1.1,1.2c-0.4,0.4-0.8,0.7-1.2,1c-0.4,0.3-0.8,0.5-1.3,0.7
	c-0.4,0.2-0.9,0.3-1.3,0.4c-4.8,0.9-9.1-3.5-8.1-8.3c0.1-0.4,0.2-0.9,0.4-1.3c0.2-0.4,0.4-0.8,0.7-1.3c0.3-0.4,0.6-0.8,1-1.2
	c0.4-0.4,0.8-0.7,1.2-1c0.4-0.3,0.8-0.5,1.3-0.7c0.4-0.2,0.9-0.3,1.3-0.4c0.4-0.1,0.9-0.1,1.3-0.1c0.4,0,0.8,0.1,1.3,0.2
	c0.4,0.1,0.8,0.3,1.2,0.5c0.2,0.1,0.4,0.2,0.6,0.3c0.2,0.1,0.4,0.2,0.6,0.4l0.2,0.1l1.2-1.2l-2.2-2.2l0-0.1l0.2-0.3
	c0.1-0.1,0.1-0.2,0.2-0.3c0.1-0.1,0.2-0.2,0.3-0.3C187.2,82.9,187.4,82.7,187.5,82.7z"/>
<path class="st0" d="M140.7,73.6l-1.3-10.7l-5.9,9.1L140.7,73.6z M143.7,75.5c-0.3,0.5-0.5,0.7-1,0.9c0,0-0.1,0-0.1,0
	c0,0-0.1,0-0.2,0c-0.1,0-0.1,0-0.2,0c-0.1,0-0.1,0-0.2,0l-11.8-2.7l-0.1-0.1l-0.1-0.1l-0.1-0.1c-0.1-0.1-0.2-0.2-0.2-0.4l0-0.1
	l0-0.1l0-0.1l0-0.1l0-0.1l0-0.2l0-0.2l0-0.1l0.1-0.1l0.1-0.2l0.1-0.2l0.3-0.5l0.4-0.7l0.7-1l0.8-1.2l1.8-2.6
	c0.4-0.6,0.8-1.1,1.2-1.6c0.4-0.5,0.8-1.1,1.2-1.6l0.5-0.6l0.7-0.9c0.7-0.1,1.2,0,1.9,0.1l0.3,0.1c0.1,0,0.2,0.1,0.3,0.1
	c0.1,0,0.2,0.1,0.3,0.1c0.1,0,0.2,0.1,0.3,0.1c0.1,0.1,0.2,0.1,0.3,0.2l0.1,0.1l0.1,0.1l0.1,0.1l0.1,0.1l0.1,0.1l0.1,0.1l0,0.1
	c0.2,0.4,0.2,1.1,0.3,1.6l0.3,1.6l0.3,1.7l0.3,1.8l0.3,1.8l0.2,1.7l0.2,1.6l0.2,1.3l-0.1,0.2L143.7,75.5z"/>
<path class="st0" d="M143,94.4c-0.2,0-0.3,0-0.5,0.1c-0.1,0-0.3,0.1-0.4,0.1c-0.1,0-0.3,0.1-0.4,0.1c-0.1,0.1-0.3,0.1-0.4,0.2
	c-0.1,0.1-0.2,0.1-0.3,0.2c-0.1,0.1-0.2,0.2-0.3,0.2c-0.1,0.1-0.2,0.2-0.3,0.3c-0.1,0.1-0.2,0.2-0.3,0.3c-0.1,0.1-0.2,0.2-0.2,0.3
	c-0.1,0.1-0.1,0.2-0.2,0.4c-0.1,0.1-0.1,0.3-0.2,0.4c0,0.1-0.1,0.3-0.1,0.4c0,0.1-0.1,0.3-0.1,0.4c0,0.1,0,0.3-0.1,0.4
	c0,0.2,0,0.3,0,0.5c0,0.2,0,0.3,0,0.5c0,0.2,0,0.3,0.1,0.4c0,0.1,0.1,0.3,0.1,0.4c0,0.1,0.1,0.3,0.1,0.4c0,0.1,0.1,0.3,0.2,0.4
	c0.1,0.1,0.1,0.2,0.2,0.4c0.1,0.1,0.1,0.2,0.2,0.3c0.1,0.1,0.2,0.2,0.3,0.3c0.1,0.1,0.2,0.2,0.3,0.3c0.1,0.1,0.2,0.2,0.3,0.2
	c0.1,0.1,0.2,0.1,0.3,0.2c0.1,0.1,0.2,0.1,0.4,0.2c0.1,0.1,0.3,0.1,0.4,0.1c0.1,0,0.3,0.1,0.4,0.1c0.1,0,0.3,0,0.5,0.1
	c0.2,0,0.3,0,0.5,0c0.2,0,0.3,0,0.5,0c0.2,0,0.3,0,0.5-0.1c0.1,0,0.3-0.1,0.4-0.1c0.1,0,0.3-0.1,0.4-0.1c0.1-0.1,0.3-0.1,0.4-0.2
	c0.1-0.1,0.2-0.1,0.3-0.2c0.1-0.1,0.2-0.2,0.3-0.2c0.1-0.1,0.2-0.2,0.3-0.3c0.1-0.1,0.2-0.2,0.3-0.3c0.1-0.1,0.2-0.2,0.2-0.3
	c0.1-0.1,0.1-0.2,0.2-0.4c0.1-0.1,0.1-0.3,0.2-0.4c0-0.1,0.1-0.3,0.1-0.4c0-0.1,0.1-0.3,0.1-0.4c0-0.1,0-0.3,0.1-0.4
	c0-0.2,0-0.3,0-0.5c0-0.2,0-0.3,0-0.5c0-0.2,0-0.3-0.1-0.4c0-0.1-0.1-0.3-0.1-0.4c0-0.1-0.1-0.3-0.1-0.4c0-0.1-0.1-0.3-0.2-0.4
	c-0.1-0.1-0.1-0.2-0.2-0.4c-0.1-0.1-0.1-0.2-0.2-0.3c-0.1-0.1-0.2-0.2-0.3-0.3c-0.1-0.1-0.2-0.2-0.3-0.3c-0.1-0.1-0.2-0.2-0.3-0.2
	c-0.1-0.1-0.2-0.1-0.3-0.2c-0.1-0.1-0.2-0.1-0.4-0.2c-0.1-0.1-0.3-0.1-0.4-0.1c-0.1,0-0.3-0.1-0.4-0.1c-0.1,0-0.3,0-0.5-0.1
	c-0.2,0-0.3,0-0.5,0C143.3,94.4,143.1,94.4,143,94.4 M141.8,97.9c0.2-0.1,0.4-0.1,0.6-0.1c0.2,0,0.4,0,0.6,0.1
	c0.2,0.1,0.4,0.2,0.5,0.3c0.1,0.1,0.3,0.3,0.3,0.5c0.1,0.2,0.1,0.4,0.1,0.6c0,0.2,0,0.4-0.1,0.6c-0.1,0.2-0.2,0.4-0.3,0.5
	c-0.1,0.1-0.3,0.3-0.5,0.3c-0.2,0.1-0.4,0.1-0.6,0.1c-0.2,0-0.4,0-0.6-0.1c-0.2-0.1-0.4-0.2-0.5-0.3c-0.1-0.1-0.3-0.3-0.3-0.5
	c-0.1-0.2-0.1-0.4-0.1-0.6c0-0.2,0-0.4,0.1-0.6c0.1-0.2,0.2-0.4,0.3-0.5C141.5,98.1,141.6,98,141.8,97.9z M141.6,91.7
	c0-0.1,0.1-0.2,0.1-0.4c0-0.1,0.1-0.2,0.2-0.3c0.1-0.1,0.2-0.2,0.2-0.3c0.1-0.1,0.2-0.2,0.3-0.2c0.1-0.1,0.2-0.1,0.3-0.2
	c0.1,0,0.2-0.1,0.4-0.1c0.1,0,0.3,0,0.4,0c0.1,0,0.3,0,0.4,0c0.1,0,0.2,0.1,0.4,0.1c0.1,0,0.2,0.1,0.3,0.2c0.1,0.1,0.2,0.1,0.3,0.2
	c0.2,0.2,0.3,0.4,0.4,0.6c0.1,0.2,0.1,0.5,0.1,0.8c0,0.1,0,0.2,0,0.4c0,0.1,0,0.2-0.1,0.3c0.3,0.1,0.5,0.2,0.7,0.2l0.3,0.1
	c0.1-0.1,0.2-0.2,0.2-0.3c0.1-0.1,0.2-0.2,0.3-0.2c0.1-0.1,0.2-0.1,0.3-0.2c0.1,0,0.2-0.1,0.4-0.1c0.1,0,0.2,0,0.4,0
	c0.1,0,0.3,0,0.4,0c0.1,0,0.2,0.1,0.4,0.1c0.1,0,0.2,0.1,0.3,0.2c0.1,0.1,0.2,0.1,0.3,0.2c0.1,0.1,0.2,0.2,0.2,0.3
	c0.1,0.1,0.1,0.2,0.2,0.3c0.1,0.2,0.1,0.5,0.1,0.8c0,0.1,0,0.3,0,0.4c0,0.1-0.1,0.2-0.1,0.4c0,0.1-0.1,0.2-0.2,0.3
	c-0.1,0.1-0.1,0.2-0.2,0.3c-0.1,0.1-0.1,0.1-0.2,0.1c0.1,0.2,0.2,0.4,0.3,0.6l0.1,0.3l0.1,0.3l0.1,0c0.3,0,0.5,0,0.8,0.1
	c0.1,0,0.2,0.1,0.3,0.2c0.1,0.1,0.2,0.1,0.3,0.2c0.1,0.1,0.2,0.2,0.2,0.3c0.1,0.1,0.1,0.2,0.2,0.3c0,0.1,0.1,0.2,0.1,0.4
	c0,0.1,0,0.3,0,0.4c0,0.3,0,0.5-0.1,0.8c-0.1,0.2-0.2,0.4-0.4,0.6c-0.1,0.1-0.2,0.2-0.3,0.2c-0.1,0.1-0.2,0.1-0.3,0.2
	c-0.1,0-0.2,0.1-0.4,0.1c-0.1,0-0.3,0-0.4,0l-0.1,0c-0.1,0.4-0.3,0.8-0.5,1.1l0.1,0.1c0.1,0.1,0.2,0.2,0.2,0.3
	c0.1,0.1,0.1,0.2,0.2,0.3c0,0.1,0.1,0.2,0.1,0.4c0,0.1,0,0.3,0,0.4c0,0.1,0,0.3,0,0.4c0,0.1-0.1,0.3-0.1,0.4c0,0.1-0.1,0.2-0.2,0.3
	c-0.1,0.1-0.1,0.2-0.2,0.3c-0.1,0.1-0.2,0.2-0.3,0.2c-0.1,0.1-0.2,0.1-0.3,0.2c-0.1,0-0.2,0.1-0.4,0.1c-0.1,0-0.3,0-0.4,0
	c-0.3,0-0.5,0-0.7-0.1c-0.2-0.1-0.4-0.2-0.6-0.4c-0.1-0.1-0.2-0.2-0.3-0.3l-0.2,0.1l-0.4,0.1l-0.4,0.1l0,0.1l0,0.2l0,0.2l0,0.2
	c0,0.3,0,0.5-0.1,0.8c-0.1,0.2-0.2,0.4-0.4,0.6c-0.1,0.1-0.2,0.2-0.3,0.2c-0.1,0.1-0.2,0.1-0.3,0.2c-0.1,0-0.2,0.1-0.4,0.1
	c-0.1,0-0.3,0-0.4,0c-0.1,0-0.3,0-0.4,0c-0.1,0-0.2-0.1-0.4-0.1c-0.1,0-0.2-0.1-0.3-0.2c-0.1-0.1-0.2-0.1-0.3-0.2
	c-0.1-0.1-0.2-0.2-0.2-0.3c-0.1-0.1-0.1-0.2-0.2-0.3c0-0.1-0.1-0.2-0.1-0.4c0-0.1,0-0.3,0-0.4c0-0.1,0-0.2,0-0.4
	c0-0.1,0-0.2,0.1-0.3l-0.2,0l-0.2-0.1l-0.2-0.1l-0.2-0.1l-0.2-0.1l-0.1,0.1c0,0-0.1,0.1-0.1,0.1c-0.1,0.1-0.2,0.2-0.3,0.2
	c-0.1,0.1-0.2,0.1-0.3,0.2c-0.1,0-0.2,0.1-0.4,0.1c-0.1,0-0.2,0-0.4,0c-0.3,0-0.5,0-0.8-0.1c-0.2-0.1-0.4-0.2-0.6-0.4
	c-0.1-0.1-0.2-0.2-0.2-0.3c-0.1-0.1-0.1-0.2-0.2-0.3c0-0.1-0.1-0.2-0.1-0.4c0-0.1,0-0.3,0-0.4c0-0.1,0-0.3,0-0.4
	c0-0.1,0.1-0.2,0.1-0.4c0-0.1,0.1-0.2,0.2-0.3c0.1-0.1,0.1-0.2,0.2-0.3l0.1-0.1c-0.2-0.4-0.3-0.7-0.5-1.1l0,0c-0.1,0-0.3,0-0.4,0
	c-0.1,0-0.3-0.1-0.4-0.1c-0.1,0-0.2-0.1-0.3-0.2c-0.1-0.1-0.2-0.1-0.3-0.2c-0.1-0.1-0.2-0.2-0.2-0.3c-0.1-0.1-0.1-0.2-0.2-0.3
	c-0.1-0.2-0.1-0.5-0.1-0.8c0-0.3,0-0.5,0.1-0.8c0.1-0.2,0.2-0.4,0.4-0.6c0.1-0.1,0.2-0.2,0.3-0.2c0.1-0.1,0.2-0.1,0.3-0.2
	c0.1,0,0.2-0.1,0.4-0.1c0.1,0,0.3,0,0.4,0l0.1,0c0.1-0.2,0.1-0.3,0.2-0.5c0-0.1,0.1-0.2,0.1-0.3c0-0.1,0.1-0.2,0.1-0.3l-0.1-0.1
	c-0.1-0.1-0.2-0.2-0.2-0.3c-0.1-0.1-0.1-0.2-0.2-0.3c0-0.1-0.1-0.2-0.1-0.4c0-0.1,0-0.3,0-0.4c0-0.1,0-0.3,0-0.4
	c0-0.1,0.1-0.2,0.1-0.4c0-0.1,0.1-0.2,0.2-0.3c0.1-0.1,0.1-0.2,0.2-0.3c0.1-0.1,0.2-0.2,0.3-0.2c0.1-0.1,0.2-0.1,0.3-0.2
	c0.1,0,0.2-0.1,0.4-0.1c0.1,0,0.3,0,0.4,0c0.1,0,0.3,0,0.4,0c0.1,0,0.2,0.1,0.4,0.1c0.1,0,0.2,0.1,0.3,0.2c0.1,0.1,0.2,0.1,0.3,0.2
	l0.1,0.1l0.1,0.1l0.2-0.1l0.2-0.1l0.2-0.1l0.2-0.1l0.2,0l0-0.1l0-0.2l0-0.2l0-0.2C141.5,91.9,141.6,91.8,141.6,91.7z"/>
<path class="st0" d="M79.6,46.1c0.8,0.2,1.2,0.9,1.7,1.4c1.7,1.9,4,2.9,6.1,4.3c3.3,2.1,6.8,3.9,9.8,6.4c3.6,3.3,6.4,7.4,8.4,11.8
	c1.2,2.6,2.3,5.2,2.9,7.9c1.3,5.3,2.4,10.7,2.8,16.2c0.1,2,1.1,4.1,0.3,6.1c-0.8,1.4-2.6,1.1-3.9,0.7c-3-1-6.2-1.7-9-3.2
	c-3.3-1.6-6.6-3.4-9.2-6c-4.7-4-8.3-9.5-9.2-15.7c-0.5-2.5-0.3-5.1-0.5-7.6c-0.1-0.9,0-1.9,0.1-2.8c0.4-4.4-0.1-8.7-0.7-13
	C78.9,51.9,76.7,45.3,79.6,46.1"/>
<path class="st1" d="M83.6,53.1c3.2,1.9,6.4,3.7,9.4,5.7c5.1,3.4,8.2,8.9,10.5,14.3c2.5,6.5,3.7,13.4,4.4,20.3
	C100.2,83.1,94,71.7,87.6,60.4C86.5,57.9,84.8,55.6,83.6,53.1"/>
<path class="st1" d="M83.6,60.5c3.1,5.2,5.9,10.5,8.9,15.8c2.9,4.9,6.1,9.7,9.2,14.5c1.5,2.2,3,4.3,4.6,6.4c-4.1-1-8-2.9-11.5-5.3
	c-5.1-3.6-9.5-8.6-10.9-14.8c-0.7-2.3-0.4-4.7-0.5-7C83.4,66.9,83.9,63.7,83.6,60.5"/>
<path class="st0" d="M179.2,5.9c0.8-1.3,2.7-2.2,3-0.1c0.1,2.7-1.2,5.3-1.3,8c-0.4,3.7-0.7,7.4-0.6,11.2c0,1.8,0.3,3.6,0.2,5.4
	c-0.2,2.8,0,5.6-0.4,8.3c-0.8,7.1-4.2,13.7-9.3,18.7c-2.8,3.2-6.5,5.4-10.2,7.4c-2.2,1.2-4.7,1.8-7,2.8c-1.2,0.4-2.7,1-3.9,0.2
	c-1.2-1-1-2.8-0.8-4.2c0.7-3.8,0.7-7.7,1.4-11.5c0.7-4.7,1.5-9.5,2.8-14.1c2-6.3,4.6-12.5,8.8-17.6c3-3.8,7.3-6.2,11.1-9.1
	C175.2,9.6,177.7,8.2,179.2,5.9"/>
<path class="st1" d="M165,21.3c3.5-3.5,7.8-6,11.8-8.9c-0.7,1.9-1.7,3.7-2.6,5.5c-2.8,6.3-5.9,12.4-8.9,18.5
	c-3.8,7.8-8,15.4-12.6,22.7c0.7-7.7,1.8-15.5,4.2-22.9C158.8,30.9,161.2,25.6,165,21.3"/>
<path class="st1" d="M164.7,45.5c4.4-7.9,7.8-16.3,12-24.3c-0.1,4.3,0.3,8.5,0,12.8c0.3,4.1-0.7,8.2-2.2,11.9
	c-3.9,8.4-11.6,15-20.5,17.7C158.1,57.9,161.3,51.6,164.7,45.5"/>
<g>
	<path class="st0" d="M278.2,86.7h-4v23.6h3.7v3.8h-11.5v-3.8h3.4V92.8h-0.2l-9.8,19.5h-2.2l-10.1-19.8h-0.2v17.8h3.5v3.8h-11.4
		v-3.8h3.7V86.7h-4v-3.8h7.8l11.9,23h0.2l11.4-23h7.8V86.7z"/>
	<path class="st0" d="M311.9,114.1h-11.5v-3.8h3.7l-1.9-5.2h-12.6l-2.1,5.2h4.1v3.8h-11.4v-3.8h2.9l9.9-23.6h-4.8v-3.8h9.4
		l11.2,27.4h3.1V114.1z M300.9,101.9l-4.8-12.7h-0.3l-5,12.7H300.9z"/>
	<path class="st0" d="M335.7,105.2c0,3-1.1,5.4-3.2,7c-2.1,1.6-4.9,2.4-8.3,2.4c-2.1,0-4.1-0.2-5.9-0.7c-1.9-0.5-3.3-1.2-4.4-2
		l0.7-6.6l3.5,0.3l-0.1,3.9c1.1,0.5,2.1,0.9,3.1,1.1c1,0.2,1.9,0.3,2.9,0.3c2,0,3.7-0.4,5-1.1c1.4-0.8,2-2.1,2-4.1
		c0-2.2-0.8-3.6-2.3-4.3c-1.5-0.7-3.2-1.2-5.1-1.6c-1.5-0.3-3-0.7-4.4-1.2c-1.5-0.5-2.7-1.3-3.7-2.4c-1-1.1-1.5-2.7-1.5-4.8
		c0-3.1,1-5.4,3.1-6.8c2.1-1.4,4.5-2.1,7.2-2.1c1.8,0,3.6,0.3,5.4,0.8c1.8,0.5,3.2,1.2,4.2,2l0.3,6.4l-3.5,0.3l-0.5-4.4
		c-0.9-0.5-1.9-0.9-2.8-1.1c-1-0.2-1.9-0.3-2.7-0.3c-1.8,0-3.2,0.4-4.3,1.2s-1.7,1.9-1.7,3.4c0,1.8,0.7,3,2,3.6
		c1.3,0.6,2.8,1.1,4.5,1.5c1.3,0.3,2.8,0.7,4.5,1.2c1.6,0.5,3,1.4,4.2,2.6C335.1,100.9,335.7,102.7,335.7,105.2z"/>
	<path class="st0" d="M368.4,114.1h-11.5v-3.8h3.7l-1.9-5.2h-12.6l-2.1,5.2h4.1v3.8h-11.4v-3.8h2.9l9.9-23.6h-4.8v-3.8h9.4
		l11.2,27.4h3.1V114.1z M357.4,101.9l-4.8-12.7h-0.3l-5,12.7H357.4z"/>
	<path class="st0" d="M393,114.1h-22.8v-3.8h3.8V86.7h-3.8v-3.8h13.1v3.8h-5v23.6h10.9l1-6.8l3.8,0.3L393,114.1z"/>
	<path class="st0" d="M426.4,114.1H415v-3.8h3.7l-1.9-5.2h-12.6l-2.1,5.2h4.1v3.8h-11.4v-3.8h2.9l9.9-23.6h-4.8v-3.8h9.4l11.2,27.4
		h3.1V114.1z M415.5,101.9l-4.8-12.7h-0.3l-5,12.7H415.5z"/>
	<path class="st0" d="M263.2,149.7l-3.8,0.4l-1-5.8h-11v11.2h14v3.7h-14v8.7h5.4v3.8h-13.6V168h3.8v-23.6h-3.8v-3.8h22.9
		L263.2,149.7z"/>
	<path class="st0" d="M316.4,144.4h-3V159c0,2.2-0.4,4.3-1.2,6.4c-0.8,2-2.1,3.7-3.9,5c-1.9,1.3-4.4,1.9-7.6,1.9
		c-4.7,0-7.9-1.3-9.7-3.9c-1.8-2.6-2.7-5.6-2.7-8.9v-15.1h-3.1v-3.8h11.6v3.8h-4.1v15c0,2.8,0.7,5,2,6.6c1.3,1.6,3.4,2.4,6.3,2.4
		c5.6,0,8.4-3.1,8.4-9.4v-14.6h-4.2v-3.8h11.3V144.4z"/>
	<path class="st0" d="M371.5,144.4h-3.7v27.4h-2.6l-17.7-23.2h-0.2V168h4.8v3.8h-12.4V168h3.6v-23.6h-4v-3.8h7.2l17.2,22.5h0.2
		v-18.7h-4.7v-3.8h12.5V144.4z"/>
	<path class="st0" d="M424.3,156.1c0,4.6-1.4,8.4-4.2,11.3c-2.8,2.9-6.6,4.3-11.6,4.3h-14.3V168h3.8v-23.7h-3.8v-3.7h14.1
		c5.2,0,9.1,1.5,11.9,4.4C422.9,147.8,424.3,151.6,424.3,156.1z M419.6,156.2c0-3.7-1-6.6-2.9-8.7c-2-2.1-4.8-3.2-8.5-3.2h-5.8V168
		h5.8c3.7,0,6.6-1,8.5-3.1C418.6,162.9,419.6,160,419.6,156.2z"/>
</g>
</svg>
